<mxfile host="app.diagrams.net" modified="2022-04-06T21:34:42.008Z" agent="5.0 (X11)" etag="nYhkQAZ_XdDCKbeAz3rK" version="17.4.0" type="github" pages="7">
  <diagram id="BzxvIkBF-Q0--fqv2AVT" name="Page-1">
    <mxGraphModel dx="832" dy="452" grid="1" gridSize="10" guides="1" tooltips="1" connect="1" arrows="1" fold="1" page="1" pageScale="1" pageWidth="650" pageHeight="400" math="0" shadow="0">
      <root>
        <mxCell id="0" />
        <mxCell id="1" parent="0" />
        <mxCell id="W95crRapf-WHysdW_aVE-5" style="rounded=0;orthogonalLoop=1;jettySize=auto;html=1;exitX=0.5;exitY=1;exitDx=0;exitDy=0;endArrow=none;endFill=0;fillColor=#0050ef;strokeColor=#001DBC;strokeWidth=2;" edge="1" parent="1" source="W95crRapf-WHysdW_aVE-1" target="W95crRapf-WHysdW_aVE-2">
          <mxGeometry relative="1" as="geometry" />
        </mxCell>
        <mxCell id="W95crRapf-WHysdW_aVE-6" style="rounded=0;orthogonalLoop=1;jettySize=auto;html=1;exitX=0.5;exitY=1;exitDx=0;exitDy=0;entryX=0.5;entryY=0;entryDx=0;entryDy=0;endArrow=none;endFill=0;fillColor=#0050ef;strokeColor=#001DBC;strokeWidth=2;" edge="1" parent="1" source="W95crRapf-WHysdW_aVE-1" target="W95crRapf-WHysdW_aVE-3">
          <mxGeometry relative="1" as="geometry" />
        </mxCell>
        <mxCell id="W95crRapf-WHysdW_aVE-7" style="edgeStyle=none;rounded=0;orthogonalLoop=1;jettySize=auto;html=1;exitX=0.5;exitY=1;exitDx=0;exitDy=0;entryX=0.5;entryY=0;entryDx=0;entryDy=0;endArrow=none;endFill=0;fillColor=#0050ef;strokeColor=#001DBC;strokeWidth=2;" edge="1" parent="1" source="W95crRapf-WHysdW_aVE-3" target="W95crRapf-WHysdW_aVE-4">
          <mxGeometry relative="1" as="geometry" />
        </mxCell>
        <mxCell id="W95crRapf-WHysdW_aVE-1" value="p" style="ellipse;whiteSpace=wrap;html=1;aspect=fixed;fillColor=#0050ef;fontColor=#ffffff;strokeColor=#001DBC;fontStyle=1" vertex="1" parent="1">
          <mxGeometry x="80" y="80" width="40" height="40" as="geometry" />
        </mxCell>
        <mxCell id="W95crRapf-WHysdW_aVE-2" value="q" style="ellipse;whiteSpace=wrap;html=1;aspect=fixed;fillColor=#0050ef;fontColor=#ffffff;strokeColor=#001DBC;fontStyle=1" vertex="1" parent="1">
          <mxGeometry x="60" y="160" width="40" height="40" as="geometry" />
        </mxCell>
        <mxCell id="W95crRapf-WHysdW_aVE-3" value="r" style="ellipse;whiteSpace=wrap;html=1;aspect=fixed;fillColor=#0050ef;fontColor=#ffffff;strokeColor=#001DBC;fontStyle=1" vertex="1" parent="1">
          <mxGeometry x="160" y="160" width="40" height="40" as="geometry" />
        </mxCell>
        <mxCell id="W95crRapf-WHysdW_aVE-4" value="s" style="ellipse;whiteSpace=wrap;html=1;aspect=fixed;fillColor=#0050ef;fontColor=#ffffff;strokeColor=#001DBC;fontStyle=1" vertex="1" parent="1">
          <mxGeometry x="120" y="240" width="40" height="40" as="geometry" />
        </mxCell>
        <mxCell id="W95crRapf-WHysdW_aVE-11" style="edgeStyle=none;rounded=0;orthogonalLoop=1;jettySize=auto;html=1;exitX=0.5;exitY=1;exitDx=0;exitDy=0;entryX=0.5;entryY=0;entryDx=0;entryDy=0;endArrow=none;endFill=0;fillColor=#d80073;strokeColor=#A50040;strokeWidth=2;" edge="1" parent="1" source="W95crRapf-WHysdW_aVE-8" target="W95crRapf-WHysdW_aVE-9">
          <mxGeometry relative="1" as="geometry" />
        </mxCell>
        <mxCell id="W95crRapf-WHysdW_aVE-12" style="edgeStyle=none;rounded=0;orthogonalLoop=1;jettySize=auto;html=1;exitX=0.5;exitY=1;exitDx=0;exitDy=0;entryX=0.5;entryY=0;entryDx=0;entryDy=0;endArrow=none;endFill=0;fillColor=#d80073;strokeColor=#A50040;strokeWidth=2;" edge="1" parent="1" source="W95crRapf-WHysdW_aVE-8" target="W95crRapf-WHysdW_aVE-10">
          <mxGeometry relative="1" as="geometry" />
        </mxCell>
        <mxCell id="W95crRapf-WHysdW_aVE-8" value="x" style="ellipse;whiteSpace=wrap;html=1;aspect=fixed;fillColor=#d80073;fontColor=#ffffff;strokeColor=#A50040;fontStyle=1" vertex="1" parent="1">
          <mxGeometry x="320" y="80" width="40" height="40" as="geometry" />
        </mxCell>
        <mxCell id="W95crRapf-WHysdW_aVE-9" value="y" style="ellipse;whiteSpace=wrap;html=1;aspect=fixed;fillColor=#d80073;fontColor=#ffffff;strokeColor=#A50040;fontStyle=1" vertex="1" parent="1">
          <mxGeometry x="320" y="170" width="40" height="40" as="geometry" />
        </mxCell>
        <mxCell id="W95crRapf-WHysdW_aVE-10" value="z" style="ellipse;whiteSpace=wrap;html=1;aspect=fixed;fillColor=#d80073;fontColor=#ffffff;strokeColor=#A50040;fontStyle=1" vertex="1" parent="1">
          <mxGeometry x="400" y="240" width="40" height="40" as="geometry" />
        </mxCell>
        <mxCell id="W95crRapf-WHysdW_aVE-13" value="Set 1" style="text;html=1;align=center;verticalAlign=middle;resizable=0;points=[];autosize=1;strokeColor=none;fillColor=none;fontStyle=1" vertex="1" parent="1">
          <mxGeometry x="95" y="310" width="50" height="20" as="geometry" />
        </mxCell>
        <mxCell id="W95crRapf-WHysdW_aVE-14" value="Set 2" style="text;html=1;align=center;verticalAlign=middle;resizable=0;points=[];autosize=1;strokeColor=none;fillColor=none;fontStyle=1" vertex="1" parent="1">
          <mxGeometry x="350" y="310" width="50" height="20" as="geometry" />
        </mxCell>
      </root>
    </mxGraphModel>
  </diagram>
  <diagram id="Z2sUTFvmcPeHGKYjc_VY" name="Page-2">
    <mxGraphModel dx="832" dy="852" grid="1" gridSize="10" guides="1" tooltips="1" connect="1" arrows="1" fold="1" page="1" pageScale="1" pageWidth="650" pageHeight="400" math="0" shadow="0">
      <root>
        <mxCell id="0" />
        <mxCell id="1" parent="0" />
        <mxCell id="3xJQ-GCv3WPEbJwhZE6M-1" value="1" style="ellipse;whiteSpace=wrap;html=1;aspect=fixed;fillColor=#0050ef;fontColor=#ffffff;strokeColor=#001DBC;fontStyle=1;shadow=1;" vertex="1" parent="1">
          <mxGeometry x="200" y="160" width="40" height="40" as="geometry" />
        </mxCell>
        <mxCell id="3xJQ-GCv3WPEbJwhZE6M-2" value="2" style="ellipse;whiteSpace=wrap;html=1;aspect=fixed;fillColor=#0050ef;fontColor=#ffffff;strokeColor=#001DBC;fontStyle=1;shadow=1;" vertex="1" parent="1">
          <mxGeometry x="290" y="160" width="40" height="40" as="geometry" />
        </mxCell>
        <mxCell id="3xJQ-GCv3WPEbJwhZE6M-3" value="3" style="ellipse;whiteSpace=wrap;html=1;aspect=fixed;fillColor=#0050ef;fontColor=#ffffff;strokeColor=#001DBC;fontStyle=1;shadow=1;" vertex="1" parent="1">
          <mxGeometry x="380" y="160" width="40" height="40" as="geometry" />
        </mxCell>
        <mxCell id="3xJQ-GCv3WPEbJwhZE6M-4" value="4" style="ellipse;whiteSpace=wrap;html=1;aspect=fixed;fillColor=#0050ef;fontColor=#ffffff;strokeColor=#001DBC;fontStyle=1;shadow=1;" vertex="1" parent="1">
          <mxGeometry x="470" y="160" width="40" height="40" as="geometry" />
        </mxCell>
        <mxCell id="3xJQ-GCv3WPEbJwhZE6M-5" value="5" style="ellipse;whiteSpace=wrap;html=1;aspect=fixed;fillColor=#0050ef;fontColor=#ffffff;strokeColor=#001DBC;fontStyle=1;shadow=1;" vertex="1" parent="1">
          <mxGeometry x="560" y="160" width="40" height="40" as="geometry" />
        </mxCell>
        <mxCell id="3xJQ-GCv3WPEbJwhZE6M-6" value="1" style="whiteSpace=wrap;html=1;aspect=fixed;fillColor=#d80073;fontColor=#ffffff;strokeColor=#A50040;rounded=1;glass=0;sketch=0;shadow=1;" vertex="1" parent="1">
          <mxGeometry x="40" y="80" width="40" height="40" as="geometry" />
        </mxCell>
        <mxCell id="3xJQ-GCv3WPEbJwhZE6M-7" value="2" style="whiteSpace=wrap;html=1;aspect=fixed;fillColor=#d80073;fontColor=#ffffff;strokeColor=#A50040;rounded=1;glass=0;sketch=0;shadow=1;" vertex="1" parent="1">
          <mxGeometry x="40" y="120" width="40" height="40" as="geometry" />
        </mxCell>
        <mxCell id="3xJQ-GCv3WPEbJwhZE6M-8" value="3" style="whiteSpace=wrap;html=1;aspect=fixed;fillColor=#d80073;fontColor=#ffffff;strokeColor=#A50040;rounded=1;glass=0;sketch=0;shadow=1;" vertex="1" parent="1">
          <mxGeometry x="40" y="160" width="40" height="40" as="geometry" />
        </mxCell>
        <mxCell id="3xJQ-GCv3WPEbJwhZE6M-9" value="4" style="whiteSpace=wrap;html=1;aspect=fixed;fillColor=#d80073;fontColor=#ffffff;strokeColor=#A50040;rounded=1;glass=0;sketch=0;shadow=1;" vertex="1" parent="1">
          <mxGeometry x="40" y="200" width="40" height="40" as="geometry" />
        </mxCell>
        <mxCell id="3xJQ-GCv3WPEbJwhZE6M-10" value="5" style="whiteSpace=wrap;html=1;aspect=fixed;fillColor=#d80073;fontColor=#ffffff;strokeColor=#A50040;rounded=1;glass=0;sketch=0;shadow=1;" vertex="1" parent="1">
          <mxGeometry x="40" y="240" width="40" height="40" as="geometry" />
        </mxCell>
        <mxCell id="3xJQ-GCv3WPEbJwhZE6M-11" value="1" style="whiteSpace=wrap;html=1;aspect=fixed;fillColor=#008a00;fontColor=#ffffff;strokeColor=#005700;fontStyle=1;rounded=1;glass=0;sketch=0;shadow=1;" vertex="1" parent="1">
          <mxGeometry y="80" width="40" height="40" as="geometry" />
        </mxCell>
        <mxCell id="3xJQ-GCv3WPEbJwhZE6M-12" value="2" style="whiteSpace=wrap;html=1;aspect=fixed;fillColor=#008a00;fontColor=#ffffff;strokeColor=#005700;fontStyle=1;rounded=1;glass=0;sketch=0;shadow=1;" vertex="1" parent="1">
          <mxGeometry y="120" width="40" height="40" as="geometry" />
        </mxCell>
        <mxCell id="3xJQ-GCv3WPEbJwhZE6M-13" value="3" style="whiteSpace=wrap;html=1;aspect=fixed;fillColor=#008a00;fontColor=#ffffff;strokeColor=#005700;fontStyle=1;rounded=1;glass=0;sketch=0;shadow=1;" vertex="1" parent="1">
          <mxGeometry y="160" width="40" height="40" as="geometry" />
        </mxCell>
        <mxCell id="3xJQ-GCv3WPEbJwhZE6M-14" value="4" style="whiteSpace=wrap;html=1;aspect=fixed;fillColor=#008a00;fontColor=#ffffff;strokeColor=#005700;fontStyle=1;rounded=1;glass=0;sketch=0;shadow=1;" vertex="1" parent="1">
          <mxGeometry y="200" width="40" height="40" as="geometry" />
        </mxCell>
        <mxCell id="3xJQ-GCv3WPEbJwhZE6M-15" value="5" style="whiteSpace=wrap;html=1;aspect=fixed;fillColor=#008a00;fontColor=#ffffff;strokeColor=#005700;fontStyle=1;rounded=1;glass=0;sketch=0;shadow=1;" vertex="1" parent="1">
          <mxGeometry y="240" width="40" height="40" as="geometry" />
        </mxCell>
        <mxCell id="3xJQ-GCv3WPEbJwhZE6M-16" value="0" style="whiteSpace=wrap;html=1;aspect=fixed;fillColor=#d80073;fontColor=#ffffff;strokeColor=#A50040;rounded=1;glass=0;sketch=0;shadow=1;" vertex="1" parent="1">
          <mxGeometry x="40" y="40" width="40" height="40" as="geometry" />
        </mxCell>
        <mxCell id="3xJQ-GCv3WPEbJwhZE6M-17" value="0" style="whiteSpace=wrap;html=1;aspect=fixed;fillColor=#008a00;fontColor=#ffffff;strokeColor=#005700;fontStyle=1;rounded=1;glass=0;sketch=0;shadow=1;" vertex="1" parent="1">
          <mxGeometry y="40" width="40" height="40" as="geometry" />
        </mxCell>
        <mxCell id="3xJQ-GCv3WPEbJwhZE6M-18" value="0" style="ellipse;whiteSpace=wrap;html=1;aspect=fixed;fillColor=#0050ef;fontColor=#ffffff;strokeColor=#001DBC;fontStyle=1;shadow=1;" vertex="1" parent="1">
          <mxGeometry x="110" y="160" width="40" height="40" as="geometry" />
        </mxCell>
        <mxCell id="3xJQ-GCv3WPEbJwhZE6M-19" value="index" style="text;html=1;align=center;verticalAlign=middle;resizable=0;points=[];autosize=1;strokeColor=#005700;fillColor=#008a00;rotation=90;fontStyle=1;fontColor=#ffffff;rounded=1;glass=0;shadow=1;" vertex="1" parent="1">
          <mxGeometry x="-5" width="50" height="20" as="geometry" />
        </mxCell>
        <mxCell id="3xJQ-GCv3WPEbJwhZE6M-21" value="representative" style="text;html=1;align=center;verticalAlign=middle;resizable=0;points=[];autosize=1;rotation=90;fontStyle=1;fillColor=#d80073;fontColor=#ffffff;strokeColor=#A50040;rounded=1;glass=0;shadow=1;" vertex="1" parent="1">
          <mxGeometry x="5" y="-30" width="110" height="20" as="geometry" />
        </mxCell>
        <mxCell id="3xJQ-GCv3WPEbJwhZE6M-22" style="edgeStyle=orthogonalEdgeStyle;rounded=0;orthogonalLoop=1;jettySize=auto;html=1;exitX=0;exitY=0.5;exitDx=0;exitDy=0;entryX=1;entryY=0.5;entryDx=0;entryDy=0;endArrow=classic;endFill=1;strokeWidth=2;curved=1;shadow=1;" edge="1" parent="1" source="3xJQ-GCv3WPEbJwhZE6M-18" target="3xJQ-GCv3WPEbJwhZE6M-18">
          <mxGeometry relative="1" as="geometry" />
        </mxCell>
        <mxCell id="3xJQ-GCv3WPEbJwhZE6M-23" style="edgeStyle=orthogonalEdgeStyle;curved=1;rounded=0;orthogonalLoop=1;jettySize=auto;html=1;exitX=0;exitY=0.5;exitDx=0;exitDy=0;entryX=1;entryY=0.5;entryDx=0;entryDy=0;endArrow=classic;endFill=1;strokeWidth=2;shadow=1;" edge="1" parent="1" source="3xJQ-GCv3WPEbJwhZE6M-1" target="3xJQ-GCv3WPEbJwhZE6M-1">
          <mxGeometry relative="1" as="geometry" />
        </mxCell>
        <mxCell id="3xJQ-GCv3WPEbJwhZE6M-24" style="edgeStyle=orthogonalEdgeStyle;curved=1;rounded=0;orthogonalLoop=1;jettySize=auto;html=1;exitX=0;exitY=0.5;exitDx=0;exitDy=0;entryX=1;entryY=0.5;entryDx=0;entryDy=0;endArrow=classic;endFill=1;strokeWidth=2;shadow=1;" edge="1" parent="1" source="3xJQ-GCv3WPEbJwhZE6M-2" target="3xJQ-GCv3WPEbJwhZE6M-2">
          <mxGeometry relative="1" as="geometry" />
        </mxCell>
        <mxCell id="3xJQ-GCv3WPEbJwhZE6M-26" style="edgeStyle=orthogonalEdgeStyle;curved=1;rounded=0;orthogonalLoop=1;jettySize=auto;html=1;exitX=0;exitY=0.5;exitDx=0;exitDy=0;entryX=1;entryY=0.5;entryDx=0;entryDy=0;endArrow=classic;endFill=1;strokeWidth=2;shadow=1;" edge="1" parent="1" source="3xJQ-GCv3WPEbJwhZE6M-3" target="3xJQ-GCv3WPEbJwhZE6M-3">
          <mxGeometry relative="1" as="geometry" />
        </mxCell>
        <mxCell id="3xJQ-GCv3WPEbJwhZE6M-27" style="edgeStyle=orthogonalEdgeStyle;curved=1;rounded=0;orthogonalLoop=1;jettySize=auto;html=1;exitX=0;exitY=0.5;exitDx=0;exitDy=0;entryX=1;entryY=0.5;entryDx=0;entryDy=0;endArrow=classic;endFill=1;strokeWidth=2;shadow=1;" edge="1" parent="1" source="3xJQ-GCv3WPEbJwhZE6M-4" target="3xJQ-GCv3WPEbJwhZE6M-4">
          <mxGeometry relative="1" as="geometry" />
        </mxCell>
        <mxCell id="3xJQ-GCv3WPEbJwhZE6M-28" style="edgeStyle=orthogonalEdgeStyle;curved=1;rounded=0;orthogonalLoop=1;jettySize=auto;html=1;exitX=0;exitY=0.5;exitDx=0;exitDy=0;entryX=1;entryY=0.5;entryDx=0;entryDy=0;endArrow=classic;endFill=1;strokeWidth=2;shadow=1;" edge="1" parent="1" source="3xJQ-GCv3WPEbJwhZE6M-5" target="3xJQ-GCv3WPEbJwhZE6M-5">
          <mxGeometry relative="1" as="geometry" />
        </mxCell>
        <mxCell id="3xJQ-GCv3WPEbJwhZE6M-29" value="&lt;div&gt;&lt;font face=&quot;Courier New&quot;&gt;Each node points to itself because in &lt;br&gt;&lt;/font&gt;&lt;/div&gt;&lt;div&gt;&lt;font face=&quot;Courier New&quot;&gt;the beginning every element is it&#39;s own&lt;/font&gt;&lt;/div&gt;&lt;div&gt;&lt;font face=&quot;Courier New&quot;&gt;representative and they form n disjoint sets.&lt;br&gt;&lt;/font&gt;&lt;/div&gt;" style="text;html=1;align=left;verticalAlign=middle;resizable=0;points=[];autosize=1;fontStyle=1" vertex="1" parent="1">
          <mxGeometry x="170" y="35" width="340" height="50" as="geometry" />
        </mxCell>
      </root>
    </mxGraphModel>
  </diagram>
  <diagram id="xCsCylC56nP7i-B1VX1M" name="Page-3">
    <mxGraphModel dx="832" dy="852" grid="1" gridSize="10" guides="1" tooltips="1" connect="1" arrows="1" fold="1" page="1" pageScale="1" pageWidth="650" pageHeight="400" math="0" shadow="0">
      <root>
        <mxCell id="0" />
        <mxCell id="1" parent="0" />
        <mxCell id="D9_7HOmqBYNiXJWbvxb3-1" value="1" style="ellipse;whiteSpace=wrap;html=1;aspect=fixed;fillColor=#0050ef;fontColor=#ffffff;strokeColor=#001DBC;fontStyle=1;shadow=1;" vertex="1" parent="1">
          <mxGeometry x="205" y="-140" width="40" height="40" as="geometry" />
        </mxCell>
        <mxCell id="D9_7HOmqBYNiXJWbvxb3-2" value="2" style="ellipse;whiteSpace=wrap;html=1;aspect=fixed;fillColor=#0050ef;fontColor=#ffffff;strokeColor=#001DBC;fontStyle=1;shadow=1;" vertex="1" parent="1">
          <mxGeometry x="295" y="-140" width="40" height="40" as="geometry" />
        </mxCell>
        <mxCell id="D9_7HOmqBYNiXJWbvxb3-3" value="3" style="ellipse;whiteSpace=wrap;html=1;aspect=fixed;fillColor=#0050ef;fontColor=#ffffff;strokeColor=#001DBC;fontStyle=1;shadow=1;" vertex="1" parent="1">
          <mxGeometry x="385" y="-140" width="40" height="40" as="geometry" />
        </mxCell>
        <mxCell id="D9_7HOmqBYNiXJWbvxb3-4" value="4" style="ellipse;whiteSpace=wrap;html=1;aspect=fixed;fillColor=#0050ef;fontColor=#ffffff;strokeColor=#001DBC;fontStyle=1;shadow=1;" vertex="1" parent="1">
          <mxGeometry x="475" y="-140" width="40" height="40" as="geometry" />
        </mxCell>
        <mxCell id="D9_7HOmqBYNiXJWbvxb3-5" value="5" style="ellipse;whiteSpace=wrap;html=1;aspect=fixed;fillColor=#0050ef;fontColor=#ffffff;strokeColor=#001DBC;fontStyle=1;shadow=1;" vertex="1" parent="1">
          <mxGeometry x="565" y="-140" width="40" height="40" as="geometry" />
        </mxCell>
        <mxCell id="D9_7HOmqBYNiXJWbvxb3-6" value="1" style="whiteSpace=wrap;html=1;aspect=fixed;fillColor=#d80073;fontColor=#ffffff;strokeColor=#A50040;rounded=1;glass=0;sketch=0;shadow=1;" vertex="1" parent="1">
          <mxGeometry x="45" y="-220" width="40" height="40" as="geometry" />
        </mxCell>
        <mxCell id="D9_7HOmqBYNiXJWbvxb3-7" value="2" style="whiteSpace=wrap;html=1;aspect=fixed;fillColor=#d80073;fontColor=#ffffff;strokeColor=#A50040;rounded=1;glass=0;sketch=0;shadow=1;" vertex="1" parent="1">
          <mxGeometry x="45" y="-180" width="40" height="40" as="geometry" />
        </mxCell>
        <mxCell id="D9_7HOmqBYNiXJWbvxb3-8" value="2" style="whiteSpace=wrap;html=1;aspect=fixed;fillColor=#d80073;fontColor=#ffffff;strokeColor=#A50040;rounded=1;glass=0;sketch=0;shadow=1;" vertex="1" parent="1">
          <mxGeometry x="45" y="-140" width="40" height="40" as="geometry" />
        </mxCell>
        <mxCell id="D9_7HOmqBYNiXJWbvxb3-9" value="4" style="whiteSpace=wrap;html=1;aspect=fixed;fillColor=#d80073;fontColor=#ffffff;strokeColor=#A50040;rounded=1;glass=0;sketch=0;shadow=1;" vertex="1" parent="1">
          <mxGeometry x="45" y="-100" width="40" height="40" as="geometry" />
        </mxCell>
        <mxCell id="D9_7HOmqBYNiXJWbvxb3-10" value="5" style="whiteSpace=wrap;html=1;aspect=fixed;fillColor=#d80073;fontColor=#ffffff;strokeColor=#A50040;rounded=1;glass=0;sketch=0;shadow=1;" vertex="1" parent="1">
          <mxGeometry x="45" y="-60" width="40" height="40" as="geometry" />
        </mxCell>
        <mxCell id="D9_7HOmqBYNiXJWbvxb3-11" value="1" style="whiteSpace=wrap;html=1;aspect=fixed;fillColor=#008a00;fontColor=#ffffff;strokeColor=#005700;fontStyle=1;rounded=1;glass=0;sketch=0;shadow=1;" vertex="1" parent="1">
          <mxGeometry x="5" y="-220" width="40" height="40" as="geometry" />
        </mxCell>
        <mxCell id="D9_7HOmqBYNiXJWbvxb3-12" value="2" style="whiteSpace=wrap;html=1;aspect=fixed;fillColor=#008a00;fontColor=#ffffff;strokeColor=#005700;fontStyle=1;rounded=1;glass=0;sketch=0;shadow=1;" vertex="1" parent="1">
          <mxGeometry x="5" y="-180" width="40" height="40" as="geometry" />
        </mxCell>
        <mxCell id="D9_7HOmqBYNiXJWbvxb3-13" value="3" style="whiteSpace=wrap;html=1;aspect=fixed;fillColor=#008a00;fontColor=#ffffff;strokeColor=#005700;fontStyle=1;rounded=1;glass=0;sketch=0;shadow=1;" vertex="1" parent="1">
          <mxGeometry x="5" y="-140" width="40" height="40" as="geometry" />
        </mxCell>
        <mxCell id="D9_7HOmqBYNiXJWbvxb3-14" value="4" style="whiteSpace=wrap;html=1;aspect=fixed;fillColor=#008a00;fontColor=#ffffff;strokeColor=#005700;fontStyle=1;rounded=1;glass=0;sketch=0;shadow=1;" vertex="1" parent="1">
          <mxGeometry x="5" y="-100" width="40" height="40" as="geometry" />
        </mxCell>
        <mxCell id="D9_7HOmqBYNiXJWbvxb3-15" value="5" style="whiteSpace=wrap;html=1;aspect=fixed;fillColor=#008a00;fontColor=#ffffff;strokeColor=#005700;fontStyle=1;rounded=1;glass=0;sketch=0;shadow=1;" vertex="1" parent="1">
          <mxGeometry x="5" y="-60" width="40" height="40" as="geometry" />
        </mxCell>
        <mxCell id="D9_7HOmqBYNiXJWbvxb3-16" value="0" style="whiteSpace=wrap;html=1;aspect=fixed;fillColor=#d80073;fontColor=#ffffff;strokeColor=#A50040;rounded=1;glass=0;sketch=0;shadow=1;" vertex="1" parent="1">
          <mxGeometry x="45" y="-260" width="40" height="40" as="geometry" />
        </mxCell>
        <mxCell id="D9_7HOmqBYNiXJWbvxb3-17" value="0" style="whiteSpace=wrap;html=1;aspect=fixed;fillColor=#008a00;fontColor=#ffffff;strokeColor=#005700;fontStyle=1;rounded=1;glass=0;sketch=0;shadow=1;" vertex="1" parent="1">
          <mxGeometry x="5" y="-260" width="40" height="40" as="geometry" />
        </mxCell>
        <mxCell id="D9_7HOmqBYNiXJWbvxb3-18" value="0" style="ellipse;whiteSpace=wrap;html=1;aspect=fixed;fillColor=#0050ef;fontColor=#ffffff;strokeColor=#001DBC;fontStyle=1;shadow=1;" vertex="1" parent="1">
          <mxGeometry x="115" y="-140" width="40" height="40" as="geometry" />
        </mxCell>
        <mxCell id="D9_7HOmqBYNiXJWbvxb3-19" value="index" style="text;html=1;align=center;verticalAlign=middle;resizable=0;points=[];autosize=1;strokeColor=#005700;fillColor=#008a00;rotation=90;fontStyle=1;fontColor=#ffffff;rounded=1;glass=0;shadow=1;" vertex="1" parent="1">
          <mxGeometry y="-300" width="50" height="20" as="geometry" />
        </mxCell>
        <mxCell id="D9_7HOmqBYNiXJWbvxb3-20" value="representative" style="text;html=1;align=center;verticalAlign=middle;resizable=0;points=[];autosize=1;rotation=90;fontStyle=1;fillColor=#d80073;fontColor=#ffffff;strokeColor=#A50040;rounded=1;glass=0;shadow=1;" vertex="1" parent="1">
          <mxGeometry x="10" y="-330" width="110" height="20" as="geometry" />
        </mxCell>
        <mxCell id="D9_7HOmqBYNiXJWbvxb3-21" style="edgeStyle=orthogonalEdgeStyle;rounded=0;orthogonalLoop=1;jettySize=auto;html=1;exitX=0;exitY=0.5;exitDx=0;exitDy=0;entryX=1;entryY=0.5;entryDx=0;entryDy=0;endArrow=classic;endFill=1;strokeWidth=2;curved=1;shadow=1;" edge="1" parent="1" source="D9_7HOmqBYNiXJWbvxb3-18" target="D9_7HOmqBYNiXJWbvxb3-18">
          <mxGeometry relative="1" as="geometry" />
        </mxCell>
        <mxCell id="D9_7HOmqBYNiXJWbvxb3-22" style="edgeStyle=orthogonalEdgeStyle;curved=1;rounded=0;orthogonalLoop=1;jettySize=auto;html=1;exitX=0;exitY=0.5;exitDx=0;exitDy=0;entryX=1;entryY=0.5;entryDx=0;entryDy=0;endArrow=classic;endFill=1;strokeWidth=2;shadow=1;" edge="1" parent="1" source="D9_7HOmqBYNiXJWbvxb3-1" target="D9_7HOmqBYNiXJWbvxb3-1">
          <mxGeometry relative="1" as="geometry" />
        </mxCell>
        <mxCell id="D9_7HOmqBYNiXJWbvxb3-23" style="edgeStyle=orthogonalEdgeStyle;curved=1;rounded=0;orthogonalLoop=1;jettySize=auto;html=1;exitX=0;exitY=0.5;exitDx=0;exitDy=0;entryX=1;entryY=0.5;entryDx=0;entryDy=0;endArrow=classic;endFill=1;strokeWidth=2;shadow=1;" edge="1" parent="1" source="D9_7HOmqBYNiXJWbvxb3-2" target="D9_7HOmqBYNiXJWbvxb3-2">
          <mxGeometry relative="1" as="geometry" />
        </mxCell>
        <mxCell id="D9_7HOmqBYNiXJWbvxb3-24" style="edgeStyle=orthogonalEdgeStyle;curved=1;rounded=0;orthogonalLoop=1;jettySize=auto;html=1;exitX=0;exitY=0.5;exitDx=0;exitDy=0;entryX=0.5;entryY=0;entryDx=0;entryDy=0;endArrow=classic;endFill=1;strokeWidth=2;shadow=1;" edge="1" parent="1" source="D9_7HOmqBYNiXJWbvxb3-3" target="D9_7HOmqBYNiXJWbvxb3-2">
          <mxGeometry relative="1" as="geometry" />
        </mxCell>
        <mxCell id="D9_7HOmqBYNiXJWbvxb3-25" style="edgeStyle=orthogonalEdgeStyle;curved=1;rounded=0;orthogonalLoop=1;jettySize=auto;html=1;exitX=0;exitY=0.5;exitDx=0;exitDy=0;entryX=1;entryY=0.5;entryDx=0;entryDy=0;endArrow=classic;endFill=1;strokeWidth=2;shadow=1;" edge="1" parent="1" source="D9_7HOmqBYNiXJWbvxb3-4" target="D9_7HOmqBYNiXJWbvxb3-4">
          <mxGeometry relative="1" as="geometry" />
        </mxCell>
        <mxCell id="D9_7HOmqBYNiXJWbvxb3-26" style="edgeStyle=orthogonalEdgeStyle;curved=1;rounded=0;orthogonalLoop=1;jettySize=auto;html=1;exitX=0;exitY=0.5;exitDx=0;exitDy=0;entryX=1;entryY=0.5;entryDx=0;entryDy=0;endArrow=classic;endFill=1;strokeWidth=2;shadow=1;" edge="1" parent="1" source="D9_7HOmqBYNiXJWbvxb3-5" target="D9_7HOmqBYNiXJWbvxb3-5">
          <mxGeometry relative="1" as="geometry" />
        </mxCell>
        <mxCell id="D9_7HOmqBYNiXJWbvxb3-27" value="&lt;div&gt;Element 3 pointing to 2 means 2 is the&lt;/div&gt;&lt;div&gt;representative for 3. Also, look at the array on the &lt;br&gt;&lt;/div&gt;&lt;div&gt;left, 3&#39;s parent is 2 but 2&#39;s parent is 2 itself.&lt;br&gt;&lt;/div&gt;" style="text;html=1;align=left;verticalAlign=middle;resizable=0;points=[];autosize=1;fontStyle=1" vertex="1" parent="1">
          <mxGeometry x="175" y="-265" width="350" height="50" as="geometry" />
        </mxCell>
      </root>
    </mxGraphModel>
  </diagram>
  <diagram id="gK-j4ms0437yOJpE63sd" name="Page-4">
    <mxGraphModel dx="832" dy="852" grid="1" gridSize="10" guides="1" tooltips="1" connect="1" arrows="1" fold="1" page="1" pageScale="1" pageWidth="650" pageHeight="400" math="0" shadow="0">
      <root>
        <mxCell id="0" />
        <mxCell id="1" parent="0" />
        <mxCell id="p2EaUKd76AsZPQCnehLz-1" value="1" style="ellipse;whiteSpace=wrap;html=1;aspect=fixed;fillColor=#0050ef;fontColor=#ffffff;strokeColor=#001DBC;fontStyle=1;shadow=1;" vertex="1" parent="1">
          <mxGeometry x="205" y="-140" width="40" height="40" as="geometry" />
        </mxCell>
        <mxCell id="p2EaUKd76AsZPQCnehLz-2" value="2" style="ellipse;whiteSpace=wrap;html=1;aspect=fixed;fillColor=#0050ef;fontColor=#ffffff;strokeColor=#001DBC;fontStyle=1;shadow=1;" vertex="1" parent="1">
          <mxGeometry x="295" y="-140" width="40" height="40" as="geometry" />
        </mxCell>
        <mxCell id="p2EaUKd76AsZPQCnehLz-3" value="3" style="ellipse;whiteSpace=wrap;html=1;aspect=fixed;fillColor=#0050ef;fontColor=#ffffff;strokeColor=#001DBC;fontStyle=1;shadow=1;" vertex="1" parent="1">
          <mxGeometry x="385" y="-140" width="40" height="40" as="geometry" />
        </mxCell>
        <mxCell id="p2EaUKd76AsZPQCnehLz-4" value="4" style="ellipse;whiteSpace=wrap;html=1;aspect=fixed;fillColor=#0050ef;fontColor=#ffffff;strokeColor=#001DBC;fontStyle=1;shadow=1;" vertex="1" parent="1">
          <mxGeometry x="475" y="-140" width="40" height="40" as="geometry" />
        </mxCell>
        <mxCell id="p2EaUKd76AsZPQCnehLz-5" value="5" style="ellipse;whiteSpace=wrap;html=1;aspect=fixed;fillColor=#0050ef;fontColor=#ffffff;strokeColor=#001DBC;fontStyle=1;shadow=1;" vertex="1" parent="1">
          <mxGeometry x="565" y="-140" width="40" height="40" as="geometry" />
        </mxCell>
        <mxCell id="p2EaUKd76AsZPQCnehLz-6" value="1" style="whiteSpace=wrap;html=1;aspect=fixed;fillColor=#d80073;fontColor=#ffffff;strokeColor=#A50040;rounded=1;glass=0;sketch=0;shadow=1;" vertex="1" parent="1">
          <mxGeometry x="45" y="-220" width="40" height="40" as="geometry" />
        </mxCell>
        <mxCell id="p2EaUKd76AsZPQCnehLz-7" value="0" style="whiteSpace=wrap;html=1;aspect=fixed;fillColor=#d80073;fontColor=#ffffff;strokeColor=#A50040;rounded=1;glass=0;sketch=0;shadow=1;" vertex="1" parent="1">
          <mxGeometry x="45" y="-180" width="40" height="40" as="geometry" />
        </mxCell>
        <mxCell id="p2EaUKd76AsZPQCnehLz-8" value="2" style="whiteSpace=wrap;html=1;aspect=fixed;fillColor=#d80073;fontColor=#ffffff;strokeColor=#A50040;rounded=1;glass=0;sketch=0;shadow=1;" vertex="1" parent="1">
          <mxGeometry x="45" y="-140" width="40" height="40" as="geometry" />
        </mxCell>
        <mxCell id="p2EaUKd76AsZPQCnehLz-9" value="4" style="whiteSpace=wrap;html=1;aspect=fixed;fillColor=#d80073;fontColor=#ffffff;strokeColor=#A50040;rounded=1;glass=0;sketch=0;shadow=1;" vertex="1" parent="1">
          <mxGeometry x="45" y="-100" width="40" height="40" as="geometry" />
        </mxCell>
        <mxCell id="p2EaUKd76AsZPQCnehLz-10" value="5" style="whiteSpace=wrap;html=1;aspect=fixed;fillColor=#d80073;fontColor=#ffffff;strokeColor=#A50040;rounded=1;glass=0;sketch=0;shadow=1;" vertex="1" parent="1">
          <mxGeometry x="45" y="-60" width="40" height="40" as="geometry" />
        </mxCell>
        <mxCell id="p2EaUKd76AsZPQCnehLz-11" value="1" style="whiteSpace=wrap;html=1;aspect=fixed;fillColor=#008a00;fontColor=#ffffff;strokeColor=#005700;fontStyle=1;rounded=1;glass=0;sketch=0;shadow=1;" vertex="1" parent="1">
          <mxGeometry x="5" y="-220" width="40" height="40" as="geometry" />
        </mxCell>
        <mxCell id="p2EaUKd76AsZPQCnehLz-12" value="2" style="whiteSpace=wrap;html=1;aspect=fixed;fillColor=#008a00;fontColor=#ffffff;strokeColor=#005700;fontStyle=1;rounded=1;glass=0;sketch=0;shadow=1;" vertex="1" parent="1">
          <mxGeometry x="5" y="-180" width="40" height="40" as="geometry" />
        </mxCell>
        <mxCell id="p2EaUKd76AsZPQCnehLz-13" value="3" style="whiteSpace=wrap;html=1;aspect=fixed;fillColor=#008a00;fontColor=#ffffff;strokeColor=#005700;fontStyle=1;rounded=1;glass=0;sketch=0;shadow=1;" vertex="1" parent="1">
          <mxGeometry x="5" y="-140" width="40" height="40" as="geometry" />
        </mxCell>
        <mxCell id="p2EaUKd76AsZPQCnehLz-14" value="4" style="whiteSpace=wrap;html=1;aspect=fixed;fillColor=#008a00;fontColor=#ffffff;strokeColor=#005700;fontStyle=1;rounded=1;glass=0;sketch=0;shadow=1;" vertex="1" parent="1">
          <mxGeometry x="5" y="-100" width="40" height="40" as="geometry" />
        </mxCell>
        <mxCell id="p2EaUKd76AsZPQCnehLz-15" value="5" style="whiteSpace=wrap;html=1;aspect=fixed;fillColor=#008a00;fontColor=#ffffff;strokeColor=#005700;fontStyle=1;rounded=1;glass=0;sketch=0;shadow=1;" vertex="1" parent="1">
          <mxGeometry x="5" y="-60" width="40" height="40" as="geometry" />
        </mxCell>
        <mxCell id="p2EaUKd76AsZPQCnehLz-16" value="0" style="whiteSpace=wrap;html=1;aspect=fixed;fillColor=#d80073;fontColor=#ffffff;strokeColor=#A50040;rounded=1;glass=0;sketch=0;shadow=1;" vertex="1" parent="1">
          <mxGeometry x="45" y="-260" width="40" height="40" as="geometry" />
        </mxCell>
        <mxCell id="p2EaUKd76AsZPQCnehLz-17" value="0" style="whiteSpace=wrap;html=1;aspect=fixed;fillColor=#008a00;fontColor=#ffffff;strokeColor=#005700;fontStyle=1;rounded=1;glass=0;sketch=0;shadow=1;" vertex="1" parent="1">
          <mxGeometry x="5" y="-260" width="40" height="40" as="geometry" />
        </mxCell>
        <mxCell id="p2EaUKd76AsZPQCnehLz-18" value="0" style="ellipse;whiteSpace=wrap;html=1;aspect=fixed;fillColor=#0050ef;fontColor=#ffffff;strokeColor=#001DBC;fontStyle=1;shadow=1;" vertex="1" parent="1">
          <mxGeometry x="115" y="-140" width="40" height="40" as="geometry" />
        </mxCell>
        <mxCell id="p2EaUKd76AsZPQCnehLz-19" value="index" style="text;html=1;align=center;verticalAlign=middle;resizable=0;points=[];autosize=1;strokeColor=#005700;fillColor=#008a00;rotation=90;fontStyle=1;fontColor=#ffffff;rounded=1;glass=0;shadow=1;" vertex="1" parent="1">
          <mxGeometry y="-300" width="50" height="20" as="geometry" />
        </mxCell>
        <mxCell id="p2EaUKd76AsZPQCnehLz-20" value="representative" style="text;html=1;align=center;verticalAlign=middle;resizable=0;points=[];autosize=1;rotation=90;fontStyle=1;fillColor=#d80073;fontColor=#ffffff;strokeColor=#A50040;rounded=1;glass=0;shadow=1;" vertex="1" parent="1">
          <mxGeometry x="10" y="-330" width="110" height="20" as="geometry" />
        </mxCell>
        <mxCell id="p2EaUKd76AsZPQCnehLz-21" style="edgeStyle=orthogonalEdgeStyle;rounded=0;orthogonalLoop=1;jettySize=auto;html=1;exitX=0;exitY=0.5;exitDx=0;exitDy=0;entryX=1;entryY=0.5;entryDx=0;entryDy=0;endArrow=classic;endFill=1;strokeWidth=2;curved=1;shadow=1;" edge="1" parent="1" source="p2EaUKd76AsZPQCnehLz-18" target="p2EaUKd76AsZPQCnehLz-18">
          <mxGeometry relative="1" as="geometry" />
        </mxCell>
        <mxCell id="p2EaUKd76AsZPQCnehLz-22" style="edgeStyle=orthogonalEdgeStyle;curved=1;rounded=0;orthogonalLoop=1;jettySize=auto;html=1;exitX=0;exitY=0.5;exitDx=0;exitDy=0;entryX=1;entryY=0.5;entryDx=0;entryDy=0;endArrow=classic;endFill=1;strokeWidth=2;shadow=1;" edge="1" parent="1" source="p2EaUKd76AsZPQCnehLz-1" target="p2EaUKd76AsZPQCnehLz-1">
          <mxGeometry relative="1" as="geometry" />
        </mxCell>
        <mxCell id="p2EaUKd76AsZPQCnehLz-23" style="edgeStyle=orthogonalEdgeStyle;curved=1;rounded=0;orthogonalLoop=1;jettySize=auto;html=1;exitX=0;exitY=0.5;exitDx=0;exitDy=0;entryX=0.5;entryY=0;entryDx=0;entryDy=0;endArrow=classic;endFill=1;strokeWidth=2;shadow=1;" edge="1" parent="1" source="p2EaUKd76AsZPQCnehLz-2" target="p2EaUKd76AsZPQCnehLz-18">
          <mxGeometry relative="1" as="geometry">
            <Array as="points">
              <mxPoint x="295" y="-160" />
              <mxPoint x="135" y="-160" />
            </Array>
          </mxGeometry>
        </mxCell>
        <mxCell id="p2EaUKd76AsZPQCnehLz-24" style="edgeStyle=orthogonalEdgeStyle;curved=1;rounded=0;orthogonalLoop=1;jettySize=auto;html=1;exitX=0;exitY=0.5;exitDx=0;exitDy=0;entryX=0.5;entryY=0;entryDx=0;entryDy=0;endArrow=classic;endFill=1;strokeWidth=2;shadow=1;" edge="1" parent="1" source="p2EaUKd76AsZPQCnehLz-3" target="p2EaUKd76AsZPQCnehLz-2">
          <mxGeometry relative="1" as="geometry" />
        </mxCell>
        <mxCell id="p2EaUKd76AsZPQCnehLz-25" style="edgeStyle=orthogonalEdgeStyle;curved=1;rounded=0;orthogonalLoop=1;jettySize=auto;html=1;exitX=0;exitY=0.5;exitDx=0;exitDy=0;entryX=1;entryY=0.5;entryDx=0;entryDy=0;endArrow=classic;endFill=1;strokeWidth=2;shadow=1;" edge="1" parent="1" source="p2EaUKd76AsZPQCnehLz-4" target="p2EaUKd76AsZPQCnehLz-4">
          <mxGeometry relative="1" as="geometry" />
        </mxCell>
        <mxCell id="p2EaUKd76AsZPQCnehLz-26" style="edgeStyle=orthogonalEdgeStyle;curved=1;rounded=0;orthogonalLoop=1;jettySize=auto;html=1;exitX=0;exitY=0.5;exitDx=0;exitDy=0;entryX=1;entryY=0.5;entryDx=0;entryDy=0;endArrow=classic;endFill=1;strokeWidth=2;shadow=1;" edge="1" parent="1" source="p2EaUKd76AsZPQCnehLz-5" target="p2EaUKd76AsZPQCnehLz-5">
          <mxGeometry relative="1" as="geometry" />
        </mxCell>
        <mxCell id="p2EaUKd76AsZPQCnehLz-27" value="&lt;div&gt;Element 3 pointing to 2 means 2 is the&lt;/div&gt;&lt;div&gt;representative for 3. Also 2 is pointing to 0 which&lt;/div&gt;&lt;div&gt;means 2&#39;s representative is 0 and so 3&#39;s representative is 0.&lt;br&gt;&lt;/div&gt;" style="text;html=1;align=left;verticalAlign=middle;resizable=0;points=[];autosize=1;fontStyle=1" vertex="1" parent="1">
          <mxGeometry x="175" y="-265" width="420" height="50" as="geometry" />
        </mxCell>
      </root>
    </mxGraphModel>
  </diagram>
  <diagram id="BSsgu-SvY46CWR1mr3PW" name="Page-5">
    <mxGraphModel dx="832" dy="852" grid="1" gridSize="10" guides="1" tooltips="1" connect="1" arrows="1" fold="1" page="1" pageScale="1" pageWidth="650" pageHeight="400" math="0" shadow="0">
      <root>
        <mxCell id="0" />
        <mxCell id="1" parent="0" />
        <mxCell id="BsJ100_VrmaBuywhFizX-1" value="1" style="ellipse;whiteSpace=wrap;html=1;aspect=fixed;fillColor=#0050ef;fontColor=#ffffff;strokeColor=#001DBC;fontStyle=1;shadow=1;" vertex="1" parent="1">
          <mxGeometry x="205" y="-140" width="40" height="40" as="geometry" />
        </mxCell>
        <mxCell id="BsJ100_VrmaBuywhFizX-2" value="2" style="ellipse;whiteSpace=wrap;html=1;aspect=fixed;fillColor=#0050ef;fontColor=#ffffff;strokeColor=#001DBC;fontStyle=1;shadow=1;" vertex="1" parent="1">
          <mxGeometry x="295" y="-140" width="40" height="40" as="geometry" />
        </mxCell>
        <mxCell id="BsJ100_VrmaBuywhFizX-3" value="3" style="ellipse;whiteSpace=wrap;html=1;aspect=fixed;fillColor=#0050ef;fontColor=#ffffff;strokeColor=#001DBC;fontStyle=1;shadow=1;" vertex="1" parent="1">
          <mxGeometry x="385" y="-140" width="40" height="40" as="geometry" />
        </mxCell>
        <mxCell id="BsJ100_VrmaBuywhFizX-4" value="4" style="ellipse;whiteSpace=wrap;html=1;aspect=fixed;fillColor=#0050ef;fontColor=#ffffff;strokeColor=#001DBC;fontStyle=1;shadow=1;" vertex="1" parent="1">
          <mxGeometry x="475" y="-140" width="40" height="40" as="geometry" />
        </mxCell>
        <mxCell id="BsJ100_VrmaBuywhFizX-5" value="5" style="ellipse;whiteSpace=wrap;html=1;aspect=fixed;fillColor=#0050ef;fontColor=#ffffff;strokeColor=#001DBC;fontStyle=1;shadow=1;" vertex="1" parent="1">
          <mxGeometry x="565" y="-140" width="40" height="40" as="geometry" />
        </mxCell>
        <mxCell id="BsJ100_VrmaBuywhFizX-6" value="1" style="whiteSpace=wrap;html=1;aspect=fixed;fillColor=#d80073;fontColor=#ffffff;strokeColor=#A50040;rounded=1;glass=0;sketch=0;shadow=1;" vertex="1" parent="1">
          <mxGeometry x="45" y="-220" width="40" height="40" as="geometry" />
        </mxCell>
        <mxCell id="BsJ100_VrmaBuywhFizX-7" value="0" style="whiteSpace=wrap;html=1;aspect=fixed;fillColor=#d80073;fontColor=#ffffff;strokeColor=#A50040;rounded=1;glass=0;sketch=0;shadow=1;" vertex="1" parent="1">
          <mxGeometry x="45" y="-180" width="40" height="40" as="geometry" />
        </mxCell>
        <mxCell id="BsJ100_VrmaBuywhFizX-8" value="2" style="whiteSpace=wrap;html=1;aspect=fixed;fillColor=#d80073;fontColor=#ffffff;strokeColor=#A50040;rounded=1;glass=0;sketch=0;shadow=1;" vertex="1" parent="1">
          <mxGeometry x="45" y="-140" width="40" height="40" as="geometry" />
        </mxCell>
        <mxCell id="BsJ100_VrmaBuywhFizX-9" value="1" style="whiteSpace=wrap;html=1;aspect=fixed;fillColor=#d80073;fontColor=#ffffff;strokeColor=#A50040;rounded=1;glass=0;sketch=0;shadow=1;" vertex="1" parent="1">
          <mxGeometry x="45" y="-100" width="40" height="40" as="geometry" />
        </mxCell>
        <mxCell id="BsJ100_VrmaBuywhFizX-10" value="1" style="whiteSpace=wrap;html=1;aspect=fixed;fillColor=#d80073;fontColor=#ffffff;strokeColor=#A50040;rounded=1;glass=0;sketch=0;shadow=1;" vertex="1" parent="1">
          <mxGeometry x="45" y="-60" width="40" height="40" as="geometry" />
        </mxCell>
        <mxCell id="BsJ100_VrmaBuywhFizX-11" value="1" style="whiteSpace=wrap;html=1;aspect=fixed;fillColor=#008a00;fontColor=#ffffff;strokeColor=#005700;fontStyle=1;rounded=1;glass=0;sketch=0;shadow=1;" vertex="1" parent="1">
          <mxGeometry x="5" y="-220" width="40" height="40" as="geometry" />
        </mxCell>
        <mxCell id="BsJ100_VrmaBuywhFizX-12" value="2" style="whiteSpace=wrap;html=1;aspect=fixed;fillColor=#008a00;fontColor=#ffffff;strokeColor=#005700;fontStyle=1;rounded=1;glass=0;sketch=0;shadow=1;" vertex="1" parent="1">
          <mxGeometry x="5" y="-180" width="40" height="40" as="geometry" />
        </mxCell>
        <mxCell id="BsJ100_VrmaBuywhFizX-13" value="3" style="whiteSpace=wrap;html=1;aspect=fixed;fillColor=#008a00;fontColor=#ffffff;strokeColor=#005700;fontStyle=1;rounded=1;glass=0;sketch=0;shadow=1;" vertex="1" parent="1">
          <mxGeometry x="5" y="-140" width="40" height="40" as="geometry" />
        </mxCell>
        <mxCell id="BsJ100_VrmaBuywhFizX-14" value="4" style="whiteSpace=wrap;html=1;aspect=fixed;fillColor=#008a00;fontColor=#ffffff;strokeColor=#005700;fontStyle=1;rounded=1;glass=0;sketch=0;shadow=1;" vertex="1" parent="1">
          <mxGeometry x="5" y="-100" width="40" height="40" as="geometry" />
        </mxCell>
        <mxCell id="BsJ100_VrmaBuywhFizX-15" value="5" style="whiteSpace=wrap;html=1;aspect=fixed;fillColor=#008a00;fontColor=#ffffff;strokeColor=#005700;fontStyle=1;rounded=1;glass=0;sketch=0;shadow=1;" vertex="1" parent="1">
          <mxGeometry x="5" y="-60" width="40" height="40" as="geometry" />
        </mxCell>
        <mxCell id="BsJ100_VrmaBuywhFizX-16" value="0" style="whiteSpace=wrap;html=1;aspect=fixed;fillColor=#d80073;fontColor=#ffffff;strokeColor=#A50040;rounded=1;glass=0;sketch=0;shadow=1;" vertex="1" parent="1">
          <mxGeometry x="45" y="-260" width="40" height="40" as="geometry" />
        </mxCell>
        <mxCell id="BsJ100_VrmaBuywhFizX-17" value="0" style="whiteSpace=wrap;html=1;aspect=fixed;fillColor=#008a00;fontColor=#ffffff;strokeColor=#005700;fontStyle=1;rounded=1;glass=0;sketch=0;shadow=1;" vertex="1" parent="1">
          <mxGeometry x="5" y="-260" width="40" height="40" as="geometry" />
        </mxCell>
        <mxCell id="BsJ100_VrmaBuywhFizX-18" value="0" style="ellipse;whiteSpace=wrap;html=1;aspect=fixed;fillColor=#0050ef;fontColor=#ffffff;strokeColor=#001DBC;fontStyle=1;shadow=1;" vertex="1" parent="1">
          <mxGeometry x="115" y="-140" width="40" height="40" as="geometry" />
        </mxCell>
        <mxCell id="BsJ100_VrmaBuywhFizX-19" value="index" style="text;html=1;align=center;verticalAlign=middle;resizable=0;points=[];autosize=1;strokeColor=#005700;fillColor=#008a00;rotation=90;fontStyle=1;fontColor=#ffffff;rounded=1;glass=0;shadow=1;" vertex="1" parent="1">
          <mxGeometry y="-300" width="50" height="20" as="geometry" />
        </mxCell>
        <mxCell id="BsJ100_VrmaBuywhFizX-20" value="representative" style="text;html=1;align=center;verticalAlign=middle;resizable=0;points=[];autosize=1;rotation=90;fontStyle=1;fillColor=#d80073;fontColor=#ffffff;strokeColor=#A50040;rounded=1;glass=0;shadow=1;" vertex="1" parent="1">
          <mxGeometry x="10" y="-330" width="110" height="20" as="geometry" />
        </mxCell>
        <mxCell id="BsJ100_VrmaBuywhFizX-21" style="edgeStyle=orthogonalEdgeStyle;rounded=0;orthogonalLoop=1;jettySize=auto;html=1;exitX=0;exitY=0.5;exitDx=0;exitDy=0;entryX=1;entryY=0.5;entryDx=0;entryDy=0;endArrow=classic;endFill=1;strokeWidth=2;curved=1;shadow=1;" edge="1" parent="1" source="BsJ100_VrmaBuywhFizX-18" target="BsJ100_VrmaBuywhFizX-18">
          <mxGeometry relative="1" as="geometry" />
        </mxCell>
        <mxCell id="BsJ100_VrmaBuywhFizX-22" style="edgeStyle=orthogonalEdgeStyle;curved=1;rounded=0;orthogonalLoop=1;jettySize=auto;html=1;exitX=0;exitY=0.5;exitDx=0;exitDy=0;entryX=1;entryY=0.5;entryDx=0;entryDy=0;endArrow=classic;endFill=1;strokeWidth=2;shadow=1;" edge="1" parent="1" source="BsJ100_VrmaBuywhFizX-1" target="BsJ100_VrmaBuywhFizX-1">
          <mxGeometry relative="1" as="geometry" />
        </mxCell>
        <mxCell id="BsJ100_VrmaBuywhFizX-23" style="edgeStyle=orthogonalEdgeStyle;curved=1;rounded=0;orthogonalLoop=1;jettySize=auto;html=1;exitX=0;exitY=0.5;exitDx=0;exitDy=0;entryX=0.5;entryY=0;entryDx=0;entryDy=0;endArrow=classic;endFill=1;strokeWidth=2;shadow=1;" edge="1" parent="1" source="BsJ100_VrmaBuywhFizX-2" target="BsJ100_VrmaBuywhFizX-18">
          <mxGeometry relative="1" as="geometry">
            <Array as="points">
              <mxPoint x="295" y="-160" />
              <mxPoint x="135" y="-160" />
            </Array>
          </mxGeometry>
        </mxCell>
        <mxCell id="BsJ100_VrmaBuywhFizX-24" style="edgeStyle=orthogonalEdgeStyle;curved=1;rounded=0;orthogonalLoop=1;jettySize=auto;html=1;exitX=0;exitY=0.5;exitDx=0;exitDy=0;entryX=0.5;entryY=0;entryDx=0;entryDy=0;endArrow=classic;endFill=1;strokeWidth=2;shadow=1;" edge="1" parent="1" source="BsJ100_VrmaBuywhFizX-3" target="BsJ100_VrmaBuywhFizX-2">
          <mxGeometry relative="1" as="geometry" />
        </mxCell>
        <mxCell id="BsJ100_VrmaBuywhFizX-25" style="edgeStyle=orthogonalEdgeStyle;curved=1;rounded=0;orthogonalLoop=1;jettySize=auto;html=1;exitX=0;exitY=0.5;exitDx=0;exitDy=0;entryX=1;entryY=0.5;entryDx=0;entryDy=0;endArrow=classic;endFill=1;strokeWidth=2;shadow=1;" edge="1" parent="1" source="BsJ100_VrmaBuywhFizX-4" target="BsJ100_VrmaBuywhFizX-1">
          <mxGeometry relative="1" as="geometry">
            <Array as="points">
              <mxPoint x="475" y="-70" />
              <mxPoint x="245" y="-70" />
            </Array>
          </mxGeometry>
        </mxCell>
        <mxCell id="BsJ100_VrmaBuywhFizX-26" style="edgeStyle=orthogonalEdgeStyle;curved=1;rounded=0;orthogonalLoop=1;jettySize=auto;html=1;exitX=0;exitY=0.5;exitDx=0;exitDy=0;endArrow=classic;endFill=1;strokeWidth=2;shadow=1;" edge="1" parent="1" source="BsJ100_VrmaBuywhFizX-5">
          <mxGeometry relative="1" as="geometry">
            <mxPoint x="240" y="-110" as="targetPoint" />
            <Array as="points">
              <mxPoint x="565" y="-50" />
              <mxPoint x="240" y="-50" />
            </Array>
          </mxGeometry>
        </mxCell>
      </root>
    </mxGraphModel>
  </diagram>
  <diagram id="bQ8sMAcCZ-uyW0Tqjjru" name="Page-6">
    <mxGraphModel dx="832" dy="852" grid="1" gridSize="10" guides="1" tooltips="1" connect="1" arrows="1" fold="1" page="1" pageScale="1" pageWidth="650" pageHeight="400" math="0" shadow="0">
      <root>
        <mxCell id="0" />
        <mxCell id="1" parent="0" />
        <mxCell id="8buXUeiDNrhqGTXpTXBl-1" value="1" style="ellipse;whiteSpace=wrap;html=1;aspect=fixed;fillColor=#0050ef;fontColor=#ffffff;strokeColor=#001DBC;fontStyle=1;shadow=1;" vertex="1" parent="1">
          <mxGeometry x="205" y="-140" width="40" height="40" as="geometry" />
        </mxCell>
        <mxCell id="8buXUeiDNrhqGTXpTXBl-34" style="edgeStyle=orthogonalEdgeStyle;curved=1;rounded=0;orthogonalLoop=1;jettySize=auto;html=1;exitX=1;exitY=0;exitDx=0;exitDy=0;entryX=0.5;entryY=0;entryDx=0;entryDy=0;shadow=1;fontFamily=Courier New;endArrow=classic;endFill=1;strokeWidth=2;fillColor=#a20025;strokeColor=#6F0000;" edge="1" parent="1" source="8buXUeiDNrhqGTXpTXBl-2" target="8buXUeiDNrhqGTXpTXBl-3">
          <mxGeometry relative="1" as="geometry">
            <Array as="points">
              <mxPoint x="310" y="-134" />
              <mxPoint x="310" y="-240" />
              <mxPoint x="380" y="-240" />
              <mxPoint x="380" y="-140" />
            </Array>
          </mxGeometry>
        </mxCell>
        <mxCell id="8buXUeiDNrhqGTXpTXBl-2" value="2" style="ellipse;whiteSpace=wrap;html=1;aspect=fixed;fillColor=#0050ef;fontColor=#ffffff;strokeColor=#001DBC;fontStyle=1;shadow=1;" vertex="1" parent="1">
          <mxGeometry x="295" y="-140" width="40" height="40" as="geometry" />
        </mxCell>
        <mxCell id="8buXUeiDNrhqGTXpTXBl-37" style="edgeStyle=orthogonalEdgeStyle;curved=1;rounded=0;orthogonalLoop=1;jettySize=auto;html=1;exitX=1;exitY=0.5;exitDx=0;exitDy=0;entryX=1;entryY=0.35;entryDx=0;entryDy=0;entryPerimeter=0;shadow=1;fontFamily=Courier New;endArrow=classic;endFill=1;strokeWidth=2;fillColor=#a20025;strokeColor=#6F0000;" edge="1" parent="1" source="8buXUeiDNrhqGTXpTXBl-3" target="8buXUeiDNrhqGTXpTXBl-30">
          <mxGeometry relative="1" as="geometry" />
        </mxCell>
        <mxCell id="8buXUeiDNrhqGTXpTXBl-3" value="3" style="ellipse;whiteSpace=wrap;html=1;aspect=fixed;fillColor=#0050ef;fontColor=#ffffff;strokeColor=#001DBC;fontStyle=1;shadow=1;" vertex="1" parent="1">
          <mxGeometry x="385" y="-140" width="40" height="40" as="geometry" />
        </mxCell>
        <mxCell id="8buXUeiDNrhqGTXpTXBl-4" value="4" style="ellipse;whiteSpace=wrap;html=1;aspect=fixed;fillColor=#0050ef;fontColor=#ffffff;strokeColor=#001DBC;fontStyle=1;shadow=1;" vertex="1" parent="1">
          <mxGeometry x="475" y="-140" width="40" height="40" as="geometry" />
        </mxCell>
        <mxCell id="8buXUeiDNrhqGTXpTXBl-5" value="5" style="ellipse;whiteSpace=wrap;html=1;aspect=fixed;fillColor=#0050ef;fontColor=#ffffff;strokeColor=#001DBC;fontStyle=1;shadow=1;" vertex="1" parent="1">
          <mxGeometry x="565" y="-140" width="40" height="40" as="geometry" />
        </mxCell>
        <mxCell id="8buXUeiDNrhqGTXpTXBl-6" value="1" style="whiteSpace=wrap;html=1;aspect=fixed;fillColor=#d80073;fontColor=#ffffff;strokeColor=#A50040;rounded=1;glass=0;sketch=0;shadow=1;" vertex="1" parent="1">
          <mxGeometry x="45" y="-220" width="40" height="40" as="geometry" />
        </mxCell>
        <mxCell id="8buXUeiDNrhqGTXpTXBl-7" value="0" style="whiteSpace=wrap;html=1;aspect=fixed;fillColor=#d80073;fontColor=#ffffff;strokeColor=#A50040;rounded=1;glass=0;sketch=0;shadow=1;" vertex="1" parent="1">
          <mxGeometry x="45" y="-180" width="40" height="40" as="geometry" />
        </mxCell>
        <mxCell id="8buXUeiDNrhqGTXpTXBl-8" value="2" style="whiteSpace=wrap;html=1;aspect=fixed;fillColor=#d80073;fontColor=#ffffff;strokeColor=#A50040;rounded=1;glass=0;sketch=0;shadow=1;" vertex="1" parent="1">
          <mxGeometry x="45" y="-140" width="40" height="40" as="geometry" />
        </mxCell>
        <mxCell id="8buXUeiDNrhqGTXpTXBl-9" value="1" style="whiteSpace=wrap;html=1;aspect=fixed;fillColor=#d80073;fontColor=#ffffff;strokeColor=#A50040;rounded=1;glass=0;sketch=0;shadow=1;" vertex="1" parent="1">
          <mxGeometry x="45" y="-100" width="40" height="40" as="geometry" />
        </mxCell>
        <mxCell id="8buXUeiDNrhqGTXpTXBl-10" value="1" style="whiteSpace=wrap;html=1;aspect=fixed;fillColor=#d80073;fontColor=#ffffff;strokeColor=#A50040;rounded=1;glass=0;sketch=0;shadow=1;" vertex="1" parent="1">
          <mxGeometry x="45" y="-60" width="40" height="40" as="geometry" />
        </mxCell>
        <mxCell id="8buXUeiDNrhqGTXpTXBl-11" value="1" style="whiteSpace=wrap;html=1;aspect=fixed;fillColor=#008a00;fontColor=#ffffff;strokeColor=#005700;fontStyle=1;rounded=1;glass=0;sketch=0;shadow=1;" vertex="1" parent="1">
          <mxGeometry x="5" y="-220" width="40" height="40" as="geometry" />
        </mxCell>
        <mxCell id="8buXUeiDNrhqGTXpTXBl-12" value="2" style="whiteSpace=wrap;html=1;aspect=fixed;fillColor=#008a00;fontColor=#ffffff;strokeColor=#005700;fontStyle=1;rounded=1;glass=0;sketch=0;shadow=1;" vertex="1" parent="1">
          <mxGeometry x="5" y="-180" width="40" height="40" as="geometry" />
        </mxCell>
        <mxCell id="8buXUeiDNrhqGTXpTXBl-13" value="3" style="whiteSpace=wrap;html=1;aspect=fixed;fillColor=#008a00;fontColor=#ffffff;strokeColor=#005700;fontStyle=1;rounded=1;glass=0;sketch=0;shadow=1;" vertex="1" parent="1">
          <mxGeometry x="5" y="-140" width="40" height="40" as="geometry" />
        </mxCell>
        <mxCell id="8buXUeiDNrhqGTXpTXBl-14" value="4" style="whiteSpace=wrap;html=1;aspect=fixed;fillColor=#008a00;fontColor=#ffffff;strokeColor=#005700;fontStyle=1;rounded=1;glass=0;sketch=0;shadow=1;" vertex="1" parent="1">
          <mxGeometry x="5" y="-100" width="40" height="40" as="geometry" />
        </mxCell>
        <mxCell id="8buXUeiDNrhqGTXpTXBl-15" value="5" style="whiteSpace=wrap;html=1;aspect=fixed;fillColor=#008a00;fontColor=#ffffff;strokeColor=#005700;fontStyle=1;rounded=1;glass=0;sketch=0;shadow=1;" vertex="1" parent="1">
          <mxGeometry x="5" y="-60" width="40" height="40" as="geometry" />
        </mxCell>
        <mxCell id="8buXUeiDNrhqGTXpTXBl-16" value="0" style="whiteSpace=wrap;html=1;aspect=fixed;fillColor=#d80073;fontColor=#ffffff;strokeColor=#A50040;rounded=1;glass=0;sketch=0;shadow=1;" vertex="1" parent="1">
          <mxGeometry x="45" y="-260" width="40" height="40" as="geometry" />
        </mxCell>
        <mxCell id="8buXUeiDNrhqGTXpTXBl-17" value="0" style="whiteSpace=wrap;html=1;aspect=fixed;fillColor=#008a00;fontColor=#ffffff;strokeColor=#005700;fontStyle=1;rounded=1;glass=0;sketch=0;shadow=1;" vertex="1" parent="1">
          <mxGeometry x="5" y="-260" width="40" height="40" as="geometry" />
        </mxCell>
        <mxCell id="8buXUeiDNrhqGTXpTXBl-32" style="edgeStyle=orthogonalEdgeStyle;curved=1;rounded=0;orthogonalLoop=1;jettySize=auto;html=1;exitX=0;exitY=0;exitDx=0;exitDy=0;entryX=0;entryY=0;entryDx=0;entryDy=0;shadow=1;fontFamily=Courier New;endArrow=classic;endFill=1;strokeWidth=2;fillColor=#a20025;strokeColor=#6F0000;" edge="1" parent="1" source="8buXUeiDNrhqGTXpTXBl-18" target="8buXUeiDNrhqGTXpTXBl-2">
          <mxGeometry relative="1" as="geometry">
            <Array as="points">
              <mxPoint x="121" y="-200" />
              <mxPoint x="301" y="-200" />
            </Array>
          </mxGeometry>
        </mxCell>
        <mxCell id="8buXUeiDNrhqGTXpTXBl-18" value="0" style="ellipse;whiteSpace=wrap;html=1;aspect=fixed;fillColor=#0050ef;fontColor=#ffffff;strokeColor=#001DBC;fontStyle=1;shadow=1;" vertex="1" parent="1">
          <mxGeometry x="115" y="-140" width="40" height="40" as="geometry" />
        </mxCell>
        <mxCell id="8buXUeiDNrhqGTXpTXBl-19" value="index" style="text;html=1;align=center;verticalAlign=middle;resizable=0;points=[];autosize=1;strokeColor=#005700;fillColor=#008a00;rotation=90;fontStyle=1;fontColor=#ffffff;rounded=1;glass=0;shadow=1;" vertex="1" parent="1">
          <mxGeometry y="-300" width="50" height="20" as="geometry" />
        </mxCell>
        <mxCell id="8buXUeiDNrhqGTXpTXBl-20" value="representative" style="text;html=1;align=center;verticalAlign=middle;resizable=0;points=[];autosize=1;rotation=90;fontStyle=1;fillColor=#d80073;fontColor=#ffffff;strokeColor=#A50040;rounded=1;glass=0;shadow=1;" vertex="1" parent="1">
          <mxGeometry x="10" y="-330" width="110" height="20" as="geometry" />
        </mxCell>
        <mxCell id="8buXUeiDNrhqGTXpTXBl-21" style="edgeStyle=orthogonalEdgeStyle;rounded=0;orthogonalLoop=1;jettySize=auto;html=1;exitX=0;exitY=0.5;exitDx=0;exitDy=0;entryX=1;entryY=0.5;entryDx=0;entryDy=0;endArrow=classic;endFill=1;strokeWidth=2;curved=1;shadow=1;" edge="1" parent="1" source="8buXUeiDNrhqGTXpTXBl-18" target="8buXUeiDNrhqGTXpTXBl-18">
          <mxGeometry relative="1" as="geometry" />
        </mxCell>
        <mxCell id="8buXUeiDNrhqGTXpTXBl-22" style="edgeStyle=orthogonalEdgeStyle;curved=1;rounded=0;orthogonalLoop=1;jettySize=auto;html=1;exitX=0;exitY=0.5;exitDx=0;exitDy=0;entryX=1;entryY=0.5;entryDx=0;entryDy=0;endArrow=classic;endFill=1;strokeWidth=2;shadow=1;" edge="1" parent="1" source="8buXUeiDNrhqGTXpTXBl-1" target="8buXUeiDNrhqGTXpTXBl-1">
          <mxGeometry relative="1" as="geometry" />
        </mxCell>
        <mxCell id="8buXUeiDNrhqGTXpTXBl-23" style="edgeStyle=orthogonalEdgeStyle;curved=1;rounded=0;orthogonalLoop=1;jettySize=auto;html=1;exitX=0;exitY=0.5;exitDx=0;exitDy=0;entryX=0.5;entryY=0;entryDx=0;entryDy=0;endArrow=classic;endFill=1;strokeWidth=2;shadow=1;fillColor=#1ba1e2;strokeColor=#006EAF;" edge="1" parent="1" source="8buXUeiDNrhqGTXpTXBl-2" target="8buXUeiDNrhqGTXpTXBl-18">
          <mxGeometry relative="1" as="geometry">
            <Array as="points">
              <mxPoint x="295" y="-160" />
              <mxPoint x="135" y="-160" />
            </Array>
          </mxGeometry>
        </mxCell>
        <mxCell id="8buXUeiDNrhqGTXpTXBl-24" style="edgeStyle=orthogonalEdgeStyle;curved=1;rounded=0;orthogonalLoop=1;jettySize=auto;html=1;exitX=0;exitY=0.5;exitDx=0;exitDy=0;entryX=0.5;entryY=0;entryDx=0;entryDy=0;endArrow=classic;endFill=1;strokeWidth=2;shadow=1;fillColor=#1ba1e2;strokeColor=#006EAF;" edge="1" parent="1" source="8buXUeiDNrhqGTXpTXBl-3" target="8buXUeiDNrhqGTXpTXBl-2">
          <mxGeometry relative="1" as="geometry" />
        </mxCell>
        <mxCell id="8buXUeiDNrhqGTXpTXBl-25" style="edgeStyle=orthogonalEdgeStyle;curved=1;rounded=0;orthogonalLoop=1;jettySize=auto;html=1;exitX=0;exitY=0.5;exitDx=0;exitDy=0;entryX=1;entryY=0.5;entryDx=0;entryDy=0;endArrow=classic;endFill=1;strokeWidth=2;shadow=1;" edge="1" parent="1" source="8buXUeiDNrhqGTXpTXBl-4" target="8buXUeiDNrhqGTXpTXBl-1">
          <mxGeometry relative="1" as="geometry">
            <Array as="points">
              <mxPoint x="475" y="-70" />
              <mxPoint x="245" y="-70" />
            </Array>
          </mxGeometry>
        </mxCell>
        <mxCell id="8buXUeiDNrhqGTXpTXBl-26" style="edgeStyle=orthogonalEdgeStyle;curved=1;rounded=0;orthogonalLoop=1;jettySize=auto;html=1;exitX=0;exitY=0.5;exitDx=0;exitDy=0;endArrow=classic;endFill=1;strokeWidth=2;shadow=1;" edge="1" parent="1" source="8buXUeiDNrhqGTXpTXBl-5">
          <mxGeometry relative="1" as="geometry">
            <mxPoint x="240" y="-110" as="targetPoint" />
            <Array as="points">
              <mxPoint x="565" y="-50" />
              <mxPoint x="240" y="-50" />
            </Array>
          </mxGeometry>
        </mxCell>
        <mxCell id="8buXUeiDNrhqGTXpTXBl-27" value="find(2)" style="text;html=1;align=center;verticalAlign=middle;resizable=0;points=[];autosize=1;strokeColor=none;fillColor=none;fontFamily=Courier New;" vertex="1" parent="1">
          <mxGeometry x="310" y="-180" width="70" height="20" as="geometry" />
        </mxCell>
        <mxCell id="8buXUeiDNrhqGTXpTXBl-29" value="find(0)" style="text;html=1;align=center;verticalAlign=middle;resizable=0;points=[];autosize=1;strokeColor=none;fillColor=none;fontFamily=Courier New;" vertex="1" parent="1">
          <mxGeometry x="170" y="-180" width="70" height="20" as="geometry" />
        </mxCell>
        <mxCell id="8buXUeiDNrhqGTXpTXBl-30" value="find(3)" style="text;html=1;align=center;verticalAlign=middle;resizable=0;points=[];autosize=1;strokeColor=none;fillColor=none;fontFamily=Courier New;" vertex="1" parent="1">
          <mxGeometry x="400" y="-290" width="70" height="20" as="geometry" />
        </mxCell>
        <mxCell id="8buXUeiDNrhqGTXpTXBl-31" style="edgeStyle=orthogonalEdgeStyle;curved=1;rounded=0;orthogonalLoop=1;jettySize=auto;html=1;exitX=0.486;exitY=1.1;exitDx=0;exitDy=0;entryX=0.5;entryY=0;entryDx=0;entryDy=0;endArrow=classic;endFill=1;strokeWidth=2;shadow=1;exitPerimeter=0;fillColor=#1ba1e2;strokeColor=#006EAF;" edge="1" parent="1" source="8buXUeiDNrhqGTXpTXBl-30" target="8buXUeiDNrhqGTXpTXBl-3">
          <mxGeometry relative="1" as="geometry">
            <mxPoint x="395" y="-110" as="sourcePoint" />
            <mxPoint x="325" y="-130" as="targetPoint" />
            <Array as="points">
              <mxPoint x="434" y="-180" />
              <mxPoint x="405" y="-180" />
            </Array>
          </mxGeometry>
        </mxCell>
        <mxCell id="8buXUeiDNrhqGTXpTXBl-33" value="return 0" style="text;html=1;align=center;verticalAlign=middle;resizable=0;points=[];autosize=1;strokeColor=none;fillColor=none;fontFamily=Courier New;" vertex="1" parent="1">
          <mxGeometry x="175" y="-220" width="70" height="20" as="geometry" />
        </mxCell>
        <mxCell id="8buXUeiDNrhqGTXpTXBl-35" value="return 0" style="text;html=1;align=center;verticalAlign=middle;resizable=0;points=[];autosize=1;strokeColor=none;fillColor=none;fontFamily=Courier New;" vertex="1" parent="1">
          <mxGeometry x="310" y="-260" width="70" height="20" as="geometry" />
        </mxCell>
        <mxCell id="8buXUeiDNrhqGTXpTXBl-36" value="return 0" style="text;html=1;align=center;verticalAlign=middle;resizable=0;points=[];autosize=1;strokeColor=none;fillColor=none;fontFamily=Courier New;rotation=-90;" vertex="1" parent="1">
          <mxGeometry x="460" y="-200" width="70" height="20" as="geometry" />
        </mxCell>
      </root>
    </mxGraphModel>
  </diagram>
  <diagram id="IB5uLR0lgHy4o0L28WRE" name="Page-7">
    <mxGraphModel dx="832" dy="452" grid="1" gridSize="10" guides="1" tooltips="1" connect="1" arrows="1" fold="1" page="1" pageScale="1" pageWidth="650" pageHeight="400" math="0" shadow="0">
      <root>
        <mxCell id="0" />
        <mxCell id="1" parent="0" />
        <mxCell id="ClpZEq5ILQBD613qyatI-1" value="1" style="ellipse;whiteSpace=wrap;html=1;aspect=fixed;fillColor=#0050ef;fontColor=#ffffff;strokeColor=#001DBC;fontStyle=1;shadow=1;" vertex="1" parent="1">
          <mxGeometry x="410" y="465" width="40" height="40" as="geometry" />
        </mxCell>
        <mxCell id="ClpZEq5ILQBD613qyatI-2" value="2" style="ellipse;whiteSpace=wrap;html=1;aspect=fixed;fillColor=#0050ef;fontColor=#ffffff;strokeColor=#001DBC;fontStyle=1;shadow=1;" vertex="1" parent="1">
          <mxGeometry x="500" y="465" width="40" height="40" as="geometry" />
        </mxCell>
        <mxCell id="ClpZEq5ILQBD613qyatI-3" value="3" style="ellipse;whiteSpace=wrap;html=1;aspect=fixed;fillColor=#0050ef;fontColor=#ffffff;strokeColor=#001DBC;fontStyle=1;shadow=1;" vertex="1" parent="1">
          <mxGeometry x="590" y="465" width="40" height="40" as="geometry" />
        </mxCell>
        <mxCell id="ClpZEq5ILQBD613qyatI-4" value="4" style="ellipse;whiteSpace=wrap;html=1;aspect=fixed;fillColor=#0050ef;fontColor=#ffffff;strokeColor=#001DBC;fontStyle=1;shadow=1;" vertex="1" parent="1">
          <mxGeometry x="680" y="465" width="40" height="40" as="geometry" />
        </mxCell>
        <mxCell id="ClpZEq5ILQBD613qyatI-5" value="5" style="ellipse;whiteSpace=wrap;html=1;aspect=fixed;fillColor=#0050ef;fontColor=#ffffff;strokeColor=#001DBC;fontStyle=1;shadow=1;" vertex="1" parent="1">
          <mxGeometry x="770" y="465" width="40" height="40" as="geometry" />
        </mxCell>
        <mxCell id="ClpZEq5ILQBD613qyatI-6" value="1" style="whiteSpace=wrap;html=1;aspect=fixed;fillColor=#d80073;fontColor=#ffffff;strokeColor=#A50040;rounded=1;glass=0;sketch=0;shadow=1;" vertex="1" parent="1">
          <mxGeometry x="250" y="385" width="40" height="40" as="geometry" />
        </mxCell>
        <mxCell id="ClpZEq5ILQBD613qyatI-7" value="0" style="whiteSpace=wrap;html=1;aspect=fixed;fillColor=#d80073;fontColor=#ffffff;strokeColor=#A50040;rounded=1;glass=0;sketch=0;shadow=1;" vertex="1" parent="1">
          <mxGeometry x="250" y="425" width="40" height="40" as="geometry" />
        </mxCell>
        <mxCell id="ClpZEq5ILQBD613qyatI-8" value="0" style="whiteSpace=wrap;html=1;aspect=fixed;fillColor=#d80073;fontColor=#ffffff;strokeColor=#A50040;rounded=1;glass=0;sketch=0;shadow=1;" vertex="1" parent="1">
          <mxGeometry x="250" y="465" width="40" height="40" as="geometry" />
        </mxCell>
        <mxCell id="ClpZEq5ILQBD613qyatI-9" value="1" style="whiteSpace=wrap;html=1;aspect=fixed;fillColor=#d80073;fontColor=#ffffff;strokeColor=#A50040;rounded=1;glass=0;sketch=0;shadow=1;" vertex="1" parent="1">
          <mxGeometry x="250" y="505" width="40" height="40" as="geometry" />
        </mxCell>
        <mxCell id="ClpZEq5ILQBD613qyatI-10" value="1" style="whiteSpace=wrap;html=1;aspect=fixed;fillColor=#d80073;fontColor=#ffffff;strokeColor=#A50040;rounded=1;glass=0;sketch=0;shadow=1;" vertex="1" parent="1">
          <mxGeometry x="250" y="545" width="40" height="40" as="geometry" />
        </mxCell>
        <mxCell id="ClpZEq5ILQBD613qyatI-11" value="1" style="whiteSpace=wrap;html=1;aspect=fixed;fillColor=#008a00;fontColor=#ffffff;strokeColor=#005700;fontStyle=1;rounded=1;glass=0;sketch=0;shadow=1;" vertex="1" parent="1">
          <mxGeometry x="210" y="385" width="40" height="40" as="geometry" />
        </mxCell>
        <mxCell id="ClpZEq5ILQBD613qyatI-12" value="2" style="whiteSpace=wrap;html=1;aspect=fixed;fillColor=#008a00;fontColor=#ffffff;strokeColor=#005700;fontStyle=1;rounded=1;glass=0;sketch=0;shadow=1;" vertex="1" parent="1">
          <mxGeometry x="210" y="425" width="40" height="40" as="geometry" />
        </mxCell>
        <mxCell id="ClpZEq5ILQBD613qyatI-13" value="3" style="whiteSpace=wrap;html=1;aspect=fixed;fillColor=#008a00;fontColor=#ffffff;strokeColor=#005700;fontStyle=1;rounded=1;glass=0;sketch=0;shadow=1;" vertex="1" parent="1">
          <mxGeometry x="210" y="465" width="40" height="40" as="geometry" />
        </mxCell>
        <mxCell id="ClpZEq5ILQBD613qyatI-14" value="4" style="whiteSpace=wrap;html=1;aspect=fixed;fillColor=#008a00;fontColor=#ffffff;strokeColor=#005700;fontStyle=1;rounded=1;glass=0;sketch=0;shadow=1;" vertex="1" parent="1">
          <mxGeometry x="210" y="505" width="40" height="40" as="geometry" />
        </mxCell>
        <mxCell id="ClpZEq5ILQBD613qyatI-15" value="5" style="whiteSpace=wrap;html=1;aspect=fixed;fillColor=#008a00;fontColor=#ffffff;strokeColor=#005700;fontStyle=1;rounded=1;glass=0;sketch=0;shadow=1;" vertex="1" parent="1">
          <mxGeometry x="210" y="545" width="40" height="40" as="geometry" />
        </mxCell>
        <mxCell id="ClpZEq5ILQBD613qyatI-16" value="0" style="whiteSpace=wrap;html=1;aspect=fixed;fillColor=#d80073;fontColor=#ffffff;strokeColor=#A50040;rounded=1;glass=0;sketch=0;shadow=1;" vertex="1" parent="1">
          <mxGeometry x="250" y="345" width="40" height="40" as="geometry" />
        </mxCell>
        <mxCell id="ClpZEq5ILQBD613qyatI-17" value="0" style="whiteSpace=wrap;html=1;aspect=fixed;fillColor=#008a00;fontColor=#ffffff;strokeColor=#005700;fontStyle=1;rounded=1;glass=0;sketch=0;shadow=1;" vertex="1" parent="1">
          <mxGeometry x="210" y="345" width="40" height="40" as="geometry" />
        </mxCell>
        <mxCell id="ClpZEq5ILQBD613qyatI-18" value="0" style="ellipse;whiteSpace=wrap;html=1;aspect=fixed;fillColor=#0050ef;fontColor=#ffffff;strokeColor=#001DBC;fontStyle=1;shadow=1;" vertex="1" parent="1">
          <mxGeometry x="320" y="465" width="40" height="40" as="geometry" />
        </mxCell>
        <mxCell id="ClpZEq5ILQBD613qyatI-19" value="index" style="text;html=1;align=center;verticalAlign=middle;resizable=0;points=[];autosize=1;strokeColor=#005700;fillColor=#008a00;rotation=90;fontStyle=1;fontColor=#ffffff;rounded=1;glass=0;shadow=1;" vertex="1" parent="1">
          <mxGeometry x="205" y="305" width="50" height="20" as="geometry" />
        </mxCell>
        <mxCell id="ClpZEq5ILQBD613qyatI-20" value="representative" style="text;html=1;align=center;verticalAlign=middle;resizable=0;points=[];autosize=1;rotation=90;fontStyle=1;fillColor=#d80073;fontColor=#ffffff;strokeColor=#A50040;rounded=1;glass=0;shadow=1;" vertex="1" parent="1">
          <mxGeometry x="215" y="275" width="110" height="20" as="geometry" />
        </mxCell>
        <mxCell id="ClpZEq5ILQBD613qyatI-21" style="edgeStyle=orthogonalEdgeStyle;rounded=0;orthogonalLoop=1;jettySize=auto;html=1;exitX=0;exitY=0.5;exitDx=0;exitDy=0;entryX=1;entryY=0.5;entryDx=0;entryDy=0;endArrow=classic;endFill=1;strokeWidth=2;curved=1;shadow=1;" edge="1" source="ClpZEq5ILQBD613qyatI-18" target="ClpZEq5ILQBD613qyatI-18" parent="1">
          <mxGeometry relative="1" as="geometry" />
        </mxCell>
        <mxCell id="ClpZEq5ILQBD613qyatI-22" style="edgeStyle=orthogonalEdgeStyle;curved=1;rounded=0;orthogonalLoop=1;jettySize=auto;html=1;exitX=0;exitY=0.5;exitDx=0;exitDy=0;entryX=1;entryY=0.5;entryDx=0;entryDy=0;endArrow=classic;endFill=1;strokeWidth=2;shadow=1;" edge="1" source="ClpZEq5ILQBD613qyatI-1" target="ClpZEq5ILQBD613qyatI-1" parent="1">
          <mxGeometry relative="1" as="geometry" />
        </mxCell>
        <mxCell id="ClpZEq5ILQBD613qyatI-23" style="edgeStyle=orthogonalEdgeStyle;curved=1;rounded=0;orthogonalLoop=1;jettySize=auto;html=1;exitX=0;exitY=0.5;exitDx=0;exitDy=0;entryX=0.5;entryY=0;entryDx=0;entryDy=0;endArrow=classic;endFill=1;strokeWidth=2;shadow=1;" edge="1" source="ClpZEq5ILQBD613qyatI-2" target="ClpZEq5ILQBD613qyatI-18" parent="1">
          <mxGeometry relative="1" as="geometry">
            <Array as="points">
              <mxPoint x="500" y="445" />
              <mxPoint x="340" y="445" />
            </Array>
          </mxGeometry>
        </mxCell>
        <mxCell id="ClpZEq5ILQBD613qyatI-24" style="edgeStyle=orthogonalEdgeStyle;curved=1;rounded=0;orthogonalLoop=1;jettySize=auto;html=1;exitX=0;exitY=0.5;exitDx=0;exitDy=0;entryX=0.5;entryY=0;entryDx=0;entryDy=0;endArrow=classic;endFill=1;strokeWidth=2;shadow=1;" edge="1" source="ClpZEq5ILQBD613qyatI-3" target="ClpZEq5ILQBD613qyatI-18" parent="1">
          <mxGeometry relative="1" as="geometry">
            <Array as="points">
              <mxPoint x="565" y="485" />
              <mxPoint x="565" y="420" />
              <mxPoint x="340" y="420" />
            </Array>
          </mxGeometry>
        </mxCell>
        <mxCell id="ClpZEq5ILQBD613qyatI-25" style="edgeStyle=orthogonalEdgeStyle;curved=1;rounded=0;orthogonalLoop=1;jettySize=auto;html=1;exitX=0;exitY=0.5;exitDx=0;exitDy=0;entryX=1;entryY=0.5;entryDx=0;entryDy=0;endArrow=classic;endFill=1;strokeWidth=2;shadow=1;" edge="1" source="ClpZEq5ILQBD613qyatI-4" target="ClpZEq5ILQBD613qyatI-1" parent="1">
          <mxGeometry relative="1" as="geometry">
            <Array as="points">
              <mxPoint x="680" y="535" />
              <mxPoint x="450" y="535" />
            </Array>
          </mxGeometry>
        </mxCell>
        <mxCell id="ClpZEq5ILQBD613qyatI-26" style="edgeStyle=orthogonalEdgeStyle;curved=1;rounded=0;orthogonalLoop=1;jettySize=auto;html=1;exitX=0;exitY=0.5;exitDx=0;exitDy=0;endArrow=classic;endFill=1;strokeWidth=2;shadow=1;" edge="1" source="ClpZEq5ILQBD613qyatI-5" parent="1">
          <mxGeometry relative="1" as="geometry">
            <mxPoint x="445" y="495" as="targetPoint" />
            <Array as="points">
              <mxPoint x="770" y="555" />
              <mxPoint x="445" y="555" />
            </Array>
          </mxGeometry>
        </mxCell>
      </root>
    </mxGraphModel>
  </diagram>
</mxfile>
